<svg fill="none" xmlns="http://www.w3.org/2000/svg" viewBox="0 0 208 40">
    <g clip-path="url(#clip0)" fill-rule="evenodd" clip-rule="evenodd">
        <path
                d="M161.155 9.52004c2.989 2.82696 4.484 6.54016 4.484 10.25366h5.584c0-5.0604-2.043-10.12085-6.126-13.98198v-.00034C161.015 1.93024 155.663 0 150.312 0v5.27957c3.927 0 7.853 1.41349 10.843 4.24047zM132.216 29.6811l4.832-2.6455c-1.971-3.2185-2.644-7.1472-1.548-11.0149 1.093-3.8555 3.74-6.93229 7.132-8.79004l-2.797-4.56904c-4.624 2.5317-8.229 6.72834-9.721 11.99438-1.497 5.2826-.583 10.6386 2.102 15.0251zM140.119 37.0339c4.585 2.4219 10.132 3.2271 15.605 1.8399 5.568-1.4111 10.007-4.8202 12.684-9.1927l-4.832-2.6455c-1.964 3.2087-5.219 5.7116-9.296 6.7448-4.007 1.0154-8.075.4222-11.439-1.3552l-2.722 4.6087z"
                fill="#0F4FFF"/>
        <path
                d="M10.7953 19.1499h10.1508v.2029c0 2.3492-.8897 5.9163-3.1592 8.1491-2.269 2.2332-4.8759 2.6395-7.2987 2.6395-2.45309 0-5.09057-.3774-7.48269-2.6975C1.80979 26.2839 0 23.9351 0 20.0779c0-3.1608 1.22708-5.6843 2.94451-7.337 2.51412-2.4652 5.61197-2.81317 8.03439-2.81317 1.6868 0 3.8336.26097 5.7347 1.45007 1.3804.87 2.5764 2.2332 3.3121 3.4512l-4.2621 2.1748c-.3991-.754-1.0121-1.5368-1.8099-2.0882-.9196-.6377-1.9624-.928-3.1278-.928-1.87074 0-3.25081.5803-4.23255 1.566-1.13472 1.1315-1.74775 2.7842-1.74775 4.5823 0 2.2041.85907 3.6252 1.71708 4.4372 1.19641 1.1601 2.57649 1.5081 4.14062 1.5081 2.0237 0 3.0971-.667 3.5571-1.0441.1533-.116 1.0735-.87 1.4721-2.2911h-4.9372v-3.5961zM31.1038 10.3628v15.5734h6.348v3.7698H26.3809V10.3628h4.7229zM47.3269 15.6987c-.8894.812-1.8094 2.233-1.8094 4.3792 0 1.769.613 3.1898 1.8708 4.3498 1.3186 1.1891 2.7908 1.5951 4.3852 1.5951 2.0854 0 3.5578-.7249 4.5389-1.6527.7973-.7253 1.7788-2.0881 1.7788-4.3212 0-2.0012-.8588-3.4802-1.7788-4.3502-1.0117-.928-2.6372-1.6531-4.5079-1.6531-1.7792 0-3.3736.6091-4.4776 1.6531zm12.4203-2.9582c1.9321 1.7691 3.1892 4.3212 3.1892 7.3084 0 2.5811-.9811 5.2203-3.1892 7.25-1.9013 1.74-4.4775 2.8422-7.912 2.8422-3.8336 0-6.4404-1.4502-7.9739-2.8422-1.9624-1.7401-3.1894-4.3498-3.1894-7.192 0-2.7841 1.3188-5.5973 3.1588-7.3374 1.3805-1.305 3.9252-2.84177 8.0045-2.84177 3.1891 0 5.8573.92807 7.912 2.81277zM73.1745 26.2262h1.1347c1.1961 0 2.6372-.029 3.4963-.783.4293-.377.6746-.9281.6746-1.6241 0-.7831-.3373-1.3051-.644-1.566-.8281-.7251-2.4228-.7251-3.3736-.7251h-1.288v4.6982zm0-8.0043h.7667c.644 0 1.7175-.0867 2.3917-.5508.4298-.29.8284-.87.8284-1.7111 0-.841-.4293-1.363-.7977-1.624-.6743-.493-1.5944-.493-2.4531-.493h-.736v4.3789zm1.5947-7.8591c1.1037 0 3.6189.0583 5.2136 1.4791 1.3184 1.189 1.4717 2.8131 1.4717 3.6541 0 .754-.1226 1.6242-.6746 2.4648-.5214.8124-1.2264 1.2184-1.7171 1.4211.9813.1451 2.0855.6093 2.8212 1.3051.6747.638 1.3187 1.7401 1.3187 3.4512 0 1.943-.7974 3.161-1.5948 3.9152-1.6867 1.537-4.1402 1.653-5.3972 1.653h-7.6978V10.3628h6.2563zM99.1504 22.63l-2.5151-6.496-2.5455 6.496h5.0606zm1.2876 3.4219h-7.7279l-1.5645 3.6541H86.239l8.2495-19.3432h4.3242l8.0653 19.3432h-4.906l-1.534-3.6541zM115.959 10.3628v15.5734h6.349v3.7698h-11.072V10.3628h4.723zM178.389 29.7061h4.723V10.3628h-4.723v19.3433zM194.484 25.9362h1.257c.982 0 3.128-.087 4.662-1.3051 1.104-.87 1.993-2.5231 1.993-4.6692 0-2.0877-.889-3.4219-1.687-4.1759-1.533-1.45-3.526-1.653-4.968-1.653h-1.257v11.8032zm1.748-15.5734c2.699 0 5.551.377 8.065 2.6681 1.81 1.6531 2.944 3.9153 2.944 6.931 0 3.0452-1.104 5.2493-2.79 6.8444-2.822 2.6968-6.348 2.8997-8.066 2.8997h-6.624V10.3628h6.471z"
                fill="#1C1C1C"/>
    </g>
    <defs>
        <clipPath id="clip0">
            <path fill="#fff" d="M0 0h208v40H0z"/>
        </clipPath>
    </defs>
</svg>
