<svg fill="none" viewBox="0 0 241 96" xmlns="http://www.w3.org/2000/svg">
    <g filter="url(#a)">
        <path d="m15 38c0-18.225 14.775-33 33-33h145c18.225 0 33 14.775 33 33s-14.775 33-33 33h-145c-18.225 0-33-14.775-33-33z" clip-rule="evenodd" fill="#0D51FF" fill-rule="evenodd"/>
    </g>
    <path d="m52.961 35.739h7.4856v0.1557c0 1.8016-0.6561 4.5374-2.3297 6.2498-1.6733 1.7127-3.5957 2.0243-5.3823 2.0243-1.8091 0-3.7541-0.2894-5.5181-2.0687-0.8818-0.8897-2.2164-2.6911-2.2164-5.6493 0-2.4242 0.9049-4.3595 2.1714-5.6271 1.854-1.8906 4.1385-2.1575 5.9249-2.1575 1.2439 0 2.827 0.2002 4.229 1.1121 1.0179 0.6673 1.9 1.7127 2.4425 2.6469l-3.1431 1.6679c-0.2943-0.5783-0.7464-1.1786-1.3346-1.6015-0.6783-0.489-1.4472-0.7117-2.3066-0.7117-1.3796 0-2.3973 0.4451-3.1213 1.2011-0.8368 0.8677-1.2889 2.1352-1.2889 3.5143 0 1.6904 0.6336 2.7802 1.2663 3.403 0.8823 0.8897 1.9 1.1566 3.0534 1.1566 1.4924 0 2.284-0.5115 2.6232-0.8007 0.1131-0.089 0.7916-0.6673 1.0856-1.7571h-3.6409v-2.7581z" clip-rule="evenodd" fill="#fff" fill-rule="evenodd"/>
    <path d="m66.404 29v11.944h4.6813v2.8912h-8.1642v-14.835h3.4829z" clip-rule="evenodd" fill="#fff" fill-rule="evenodd"/>
    <path d="m76.528 33.092c-0.6559 0.6228-1.3344 1.7127-1.3344 3.3586 0 1.3568 0.4521 2.4464 1.3796 3.3361 0.9725 0.9119 2.0581 1.2233 3.2339 1.2233 1.5378 0 2.6237-0.556 3.3471-1.2675 0.5881-0.5563 1.3118-1.6015 1.3118-3.3141 0-1.5348-0.6333-2.6691-1.3118-3.3364-0.746-0.7117-1.9447-1.2678-3.3243-1.2678-1.312 0-2.4877 0.4671-3.3019 1.2678zm9.1591-2.2685c1.4248 1.3568 2.3518 3.3141 2.3518 5.6051 0 1.9795-0.7235 4.0036-2.3518 5.5603-1.4022 1.3345-3.302 2.1797-5.8347 2.1797-2.827 0-4.7494-1.1121-5.8802-2.1797-1.4472-1.3346-2.3521-3.3361-2.3521-5.5159 0-2.1352 0.9725-4.2927 2.3295-5.6273 1.0179-1.0009 2.8946-2.1795 5.9028-2.1795 2.3518 0 4.3194 0.7118 5.8347 2.1573z" clip-rule="evenodd" fill="#fff" fill-rule="evenodd"/>
    <path d="m93.748 41.166h0.8368c0.882 0 1.9447-0.0223 2.5782-0.6006 0.3166-0.2891 0.4975-0.7117 0.4975-1.2455 0-0.6006-0.2487-1.0009-0.4749-1.2011-0.6106-0.5561-1.7867-0.5561-2.4878-0.5561h-0.9498v3.6033zm0-6.1389h0.5654c0.4749 0 1.2665-0.0665 1.7638-0.4224 0.3168-0.2224 0.6109-0.6672 0.6109-1.3122 0-0.6451-0.3167-1.0454-0.5883-1.2456-0.4973-0.3781-1.1758-0.3781-1.8091-0.3781h-0.5427v3.3583zm1.1765-6.0275c0.814 0 2.6687 0.0448 3.8448 1.1344 0.9722 0.9119 1.0853 2.1575 1.0853 2.8025 0 0.5783-0.0905 1.2456-0.4976 1.8904-0.3844 0.623-0.9044 0.9344-1.2662 1.0898 0.7237 0.1112 1.5379 0.4674 2.0801 1.0009 0.498 0.4894 0.973 1.3346 0.973 2.6469 0 1.4902-0.588 2.4244-1.1762 3.0027-1.2439 1.1788-3.0532 1.2678-3.9802 1.2678h-5.6767v-14.835h4.6137z" clip-rule="evenodd" fill="#fff" fill-rule="evenodd"/>
    <path d="m111.37 38.408-1.855-4.9821-1.877 4.9821h3.732zm0.95 2.6243h-5.699l-1.154 2.8025h-3.618l6.083-14.835h3.189l5.948 14.835h-3.618l-1.131-2.8025z" clip-rule="evenodd" fill="#fff" fill-rule="evenodd"/>
    <path d="m122.23 29v11.944h4.682v2.8912h-8.165v-14.835h3.483z" clip-rule="evenodd" fill="#fff" fill-rule="evenodd"/>
    <path d="m172.56 43.836h3.483v-14.835h-3.483v14.835z" clip-rule="evenodd" fill="#fff" fill-rule="evenodd"/>
    <path d="m182.9 40.944h0.928c0.723 0 2.306-0.0667 3.437-1.0009 0.814-0.6673 1.47-1.9351 1.47-3.581 0-1.6012-0.656-2.6243-1.244-3.2026-1.13-1.1122-2.601-1.2679-3.663-1.2679h-0.928v9.0524zm1.29-11.944c1.99 0 4.093 0.2892 5.948 2.0463 1.334 1.2678 2.17 3.0027 2.17 5.3157 0 2.3354-0.814 4.0258-2.057 5.2491-2.081 2.0683-4.682 2.224-5.948 2.224h-4.885v-14.835h4.772z" clip-rule="evenodd" fill="#fff" fill-rule="evenodd"/>
    <path d="m161.11 54.019c0.256 0 0.463-0.0703 0.623-0.2109 0.16-0.1405 0.243-0.3274 0.249-0.5606h1.299c-3e-3 0.3514-0.099 0.674-0.288 0.9679-0.188 0.2907-0.447 0.5175-0.776 0.6804-0.326 0.1598-0.687 0.2396-1.083 0.2396-0.741 0-1.326-0.2348-1.754-0.7044-0.428-0.4727-0.642-1.1244-0.642-1.955v-0.091c0-0.7986 0.213-1.4359 0.638-1.9119 0.424-0.476 1.007-0.7139 1.749-0.7139 0.648 0 1.167 0.1852 1.557 0.5558 0.393 0.3674 0.592 0.8577 0.599 1.471h-1.299c-6e-3 -0.2683-0.089-0.4855-0.249-0.6516-0.16-0.1693-0.37-0.254-0.632-0.254-0.323 0-0.567 0.1182-0.734 0.3546-0.162 0.2332-0.244 0.6133-0.244 1.1404v0.1438c0 0.5334 0.082 0.9168 0.244 1.15 0.163 0.2332 0.411 0.3498 0.743 0.3498z" fill="#fff"/>
    <path d="m164.25 52.4c0-0.5143 0.099-0.9727 0.297-1.3752s0.483-0.714 0.853-0.9344c0.374-0.2204 0.807-0.3306 1.299-0.3306 0.699 0 1.27 0.214 1.711 0.642 0.444 0.4281 0.691 1.0095 0.742 1.7442l0.01 0.3546c0 0.7954-0.222 1.4343-0.666 1.9167-0.444 0.4791-1.04 0.7187-1.788 0.7187-0.747 0-1.344-0.2396-1.792-0.7187-0.444-0.4792-0.666-1.1309-0.666-1.955v-0.0623zm1.385 0.1006c0 0.4919 0.093 0.8689 0.278 1.1308 0.185 0.2588 0.45 0.3882 0.795 0.3882 0.336 0 0.598-0.1278 0.786-0.3834 0.189-0.2587 0.283-0.6708 0.283-1.2362 0-0.4824-0.094-0.8561-0.283-1.1213-0.188-0.2651-0.453-0.3977-0.795-0.3977-0.339 0-0.601 0.1326-0.786 0.3977-0.185 0.262-0.278 0.6693-0.278 1.2219z" fill="#fff"/>
    <path d="m171.68 49.855 0.043 0.599c0.371-0.4632 0.867-0.6948 1.49-0.6948 0.55 0 0.958 0.1613 1.227 0.4839 0.268 0.3227 0.406 0.805 0.412 1.4471v3.3494h-1.385v-3.3159c0-0.2938-0.064-0.5063-0.192-0.6372-0.127-0.1342-0.34-0.2013-0.637-0.2013-0.39 0-0.682 0.1661-0.877 0.4983v3.6561h-1.385v-5.1846h1.304z" fill="#fff"/>
    <path d="m177.57 49.855 0.043 0.599c0.371-0.4632 0.868-0.6948 1.491-0.6948 0.549 0 0.958 0.1613 1.226 0.4839 0.269 0.3227 0.406 0.805 0.412 1.4471v3.3494h-1.385v-3.3159c0-0.2938-0.063-0.5063-0.191-0.6372-0.128-0.1342-0.34-0.2013-0.637-0.2013-0.39 0-0.682 0.1661-0.877 0.4983v3.6561h-1.385v-5.1846h1.303z" fill="#fff"/>
    <path d="m184.58 55.136c-0.76 0-1.38-0.2332-1.859-0.6996-0.476-0.4664-0.714-1.0877-0.714-1.8639v-0.1342c0-0.5207 0.101-0.9855 0.302-1.3944 0.201-0.4121 0.486-0.7283 0.853-0.9487 0.37-0.2236 0.792-0.3354 1.265-0.3354 0.709 0 1.267 0.2236 1.672 0.6708 0.409 0.4472 0.614 1.0813 0.614 1.9023v0.5654h-3.302c0.045 0.3386 0.179 0.6101 0.403 0.8146 0.226 0.2044 0.512 0.3067 0.857 0.3067 0.534 0 0.951-0.1933 1.251-0.5798l0.68 0.7618c-0.207 0.2939-0.488 0.5239-0.843 0.69-0.355 0.163-0.748 0.2444-1.179 0.2444zm-0.158-4.255c-0.275 0-0.498 0.0927-0.671 0.2779-0.169 0.1853-0.278 0.4504-0.326 0.7954h1.927v-0.1102c-7e-3 -0.3066-0.09-0.543-0.249-0.7091-0.16-0.1693-0.387-0.254-0.681-0.254z" fill="#fff"/>
    <path d="m190.05 54.019c0.255 0 0.463-0.0703 0.623-0.2109 0.16-0.1405 0.243-0.3274 0.249-0.5606h1.299c-4e-3 0.3514-0.099 0.674-0.288 0.9679-0.188 0.2907-0.447 0.5175-0.776 0.6804-0.326 0.1598-0.687 0.2396-1.083 0.2396-0.741 0-1.326-0.2348-1.754-0.7044-0.428-0.4727-0.642-1.1244-0.642-1.955v-0.091c0-0.7986 0.212-1.4359 0.637-1.9119s1.008-0.7139 1.749-0.7139c0.649 0 1.168 0.1852 1.558 0.5558 0.393 0.3674 0.592 0.8577 0.599 1.471h-1.299c-6e-3 -0.2683-0.089-0.4855-0.249-0.6516-0.16-0.1693-0.371-0.254-0.633-0.254-0.322 0-0.567 0.1182-0.733 0.3546-0.163 0.2332-0.244 0.6133-0.244 1.1404v0.1438c0 0.5334 0.081 0.9168 0.244 1.15s0.411 0.3498 0.743 0.3498z" fill="#fff"/>
    <path d="m195.06 48.581v1.2746h0.886v1.0158h-0.886v2.5875c0 0.1917 0.036 0.3291 0.11 0.4121 0.073 0.0831 0.214 0.1246 0.422 0.1246 0.153 0 0.289-0.0112 0.407-0.0335v1.0493c-0.272 0.0831-0.551 0.1246-0.839 0.1246-0.971 0-1.466-0.4903-1.485-1.471v-2.7936h-0.757v-1.0158h0.757v-1.2746h1.385z" fill="#fff"/>
    <path d="m152.87 42.086c-0.377 0.0488-0.762 0.074-1.153 0.074-4.911 0-8.893-3.9817-8.893-8.8933 0-0.3906 0.025-0.7753 0.074-1.1526 0.377-0.0489 0.762-0.0741 1.153-0.0741 4.911 0 8.893 3.9817 8.893 8.8934 0 0.3906-0.025 0.7753-0.074 1.1526zm3.447-1.2064c-0.029-6.732-5.481-12.184-12.213-12.213 1.559-2.5735 4.385-4.2935 7.613-4.2935 4.912 0 8.894 3.9817 8.894 8.8934 0 3.2281-1.72 6.0546-4.294 7.6129zm-0.65 4.0039c4.837-1.6442 8.317-6.2241 8.317-11.617 0-6.7747-5.492-12.267-12.267-12.267-5.392 0-9.972 3.4799-11.617 8.3166-4.836 1.6441-8.316 6.2241-8.316 11.617 0 6.7747 5.492 12.267 12.267 12.267 5.392 0 9.972-3.4799 11.616-8.3166zm-4.004 0.6497c-6.732-0.0289-12.183-5.4807-12.212-12.213-2.574 1.5583-4.294 4.3847-4.294 7.6129 0 4.9116 3.982 8.8933 8.894 8.8933 3.228 0 6.054-1.7199 7.612-4.2935z" clip-rule="evenodd" fill="#fff" fill-rule="evenodd"/>
    <defs>
        <filter id="a" x="0" y="0" width="241" height="96" color-interpolation-filters="sRGB" filterUnits="userSpaceOnUse">
            <feFlood flood-opacity="0" result="BackgroundImageFix"/>
            <feColorMatrix in="SourceAlpha" values="0 0 0 0 0 0 0 0 0 0 0 0 0 0 0 0 0 0 127 0"/>
            <feOffset dy="10"/>
            <feGaussianBlur stdDeviation="7.5"/>
            <feColorMatrix values="0 0 0 0 0 0 0 0 0 0 0 0 0 0 0 0 0 0 0.2 0"/>
            <feBlend in2="BackgroundImageFix" result="effect1_dropShadow"/>
            <feBlend in="SourceGraphic" in2="effect1_dropShadow" result="shape"/>
        </filter>
    </defs>
</svg>
